<svg width="100" height="100" viewBox="0 0 100 100" fill="none" xmlns="http://www.w3.org/2000/svg">
<path d="M30.4348 46.1538C24.6692 46.1538 19.1398 44.1278 15.0629 40.5213C10.986 36.9148 8.69565 32.0234 8.69565 26.9231V11.5385C8.69565 10.5184 9.15372 9.54011 9.9691 8.81882C10.7845 8.09753 11.8904 7.69231 13.0435 7.69231H17.3913C18.5444 7.69231 19.6503 7.28709 20.4657 6.5658C21.281 5.8445 21.7391 4.86622 21.7391 3.84615C21.7391 2.82609 21.281 1.84781 20.4657 1.12651C19.6503 0.405218 18.5444 0 17.3913 0H13.0435C9.58413 0 6.26647 1.21566 3.82035 3.37954C1.37422 5.54342 0 8.47827 0 11.5385V26.9231C0.00558878 31.2682 1.20336 35.5472 3.49043 39.3926C5.77751 43.238 9.08554 46.5348 13.1304 49C17.0166 52.0309 20.1683 55.7269 22.3951 59.8651C24.622 64.0032 25.8779 68.4976 26.0869 73.0769C26.0869 80.2174 29.2935 87.0654 35.0011 92.1144C40.7087 97.1635 48.4499 100 56.5217 100C64.5935 100 72.3347 97.1635 78.0423 92.1144C83.75 87.0654 86.9565 80.2174 86.9565 73.0769V68.6923C91.055 67.7562 94.6269 65.5299 97.0026 62.4307C99.3783 59.3316 100.395 55.5724 99.8613 51.8577C99.328 48.143 97.2814 44.7279 94.1053 42.2526C90.9292 39.7773 86.8416 38.4116 82.6087 38.4116C78.3757 38.4116 74.2881 39.7773 71.112 42.2526C67.9359 44.7279 65.8893 48.143 65.356 51.8577C64.8226 55.5724 65.839 59.3316 68.2147 62.4307C70.5904 65.5299 74.1623 67.7562 78.2608 68.6923V73.0769C78.2608 78.1772 75.9705 83.0687 71.8936 86.6751C67.8167 90.2816 62.2873 92.3077 56.5217 92.3077C50.7561 92.3077 45.2267 90.2816 41.1498 86.6751C37.073 83.0687 34.7826 78.1772 34.7826 73.0769C35.0027 68.4919 36.2721 63.994 38.5141 59.8556C40.7561 55.7171 43.924 52.0241 47.8261 49C51.8549 46.5263 55.146 43.2257 57.4176 39.3808C59.6892 35.536 60.8737 31.2614 60.8695 26.9231V11.5385C60.8695 8.47827 59.4953 5.54342 57.0492 3.37954C54.6031 1.21566 51.2854 0 47.8261 0H43.4782C42.3251 0 41.2192 0.405218 40.4039 1.12651C39.5885 1.84781 39.1304 2.82609 39.1304 3.84615C39.1304 4.86622 39.5885 5.8445 40.4039 6.5658C41.2192 7.28709 42.3251 7.69231 43.4782 7.69231H47.8261C48.9792 7.69231 50.0851 8.09753 50.9004 8.81882C51.7158 9.54011 52.1739 10.5184 52.1739 11.5385V26.9231C52.1739 29.4485 51.6116 31.9492 50.5191 34.2824C49.4266 36.6156 47.8253 38.7355 45.8066 40.5213C43.788 42.307 41.3915 43.7236 38.754 44.69C36.1165 45.6564 33.2896 46.1538 30.4348 46.1538ZM82.6087 61.5385C80.3024 61.5385 78.0907 60.728 76.4599 59.2854C74.8292 57.8428 73.913 55.8863 73.913 53.8462C73.913 51.806 74.8292 49.8495 76.4599 48.4069C78.0907 46.9643 80.3024 46.1538 82.6087 46.1538C84.9149 46.1538 87.1267 46.9643 88.7574 48.4069C90.3882 49.8495 91.3043 51.806 91.3043 53.8462C91.3043 55.8863 90.3882 57.8428 88.7574 59.2854C87.1267 60.728 84.9149 61.5385 82.6087 61.5385Z" fill="#172449"/>
</svg>
