<svg width="100" height="100" viewBox="0 0 100 100" fill="none" xmlns="http://www.w3.org/2000/svg">
<g clip-path="url(#clip0_379_54)">
<path d="M50 0C22.3858 0 0 22.3858 0 50C0 77.6143 22.3858 100 50 100C77.6143 100 100 77.6143 100 50C100 22.3858 77.6143 0 50 0ZM48.3032 18.4814H51.6968V28.4851H48.3032V18.4814ZM34.4238 21.4843L40.1612 29.6753L37.378 31.6284L31.6407 23.4375L34.4238 21.4843ZM65.5762 21.4843L68.3593 23.4375L62.622 31.6284L59.8388 29.6753L65.5762 21.4843ZM50 31.2195C58.3128 31.2195 65.0513 36.2653 65.0513 42.4927L56.5003 68.3899H43.4998L34.9488 42.4927C34.9488 36.2652 41.6877 31.2195 50 31.2195ZM22.9675 34.2224L32.3669 37.6465L31.2012 40.8387L21.8078 37.4146L22.9675 34.2224ZM77.0325 34.2224L78.1922 37.4146L68.7928 40.8387L67.6331 37.6465L77.0325 34.2224ZM31.9153 48.8282L32.7942 52.1118L23.1323 54.6997L22.2534 51.4161L31.9153 48.8282ZM68.0848 48.8282L77.7466 51.4161L76.8677 54.6997L67.2058 52.1118L68.0848 48.8282ZM43.3106 70.282H56.6895V74.7803H43.3106V70.282ZM43.3106 77.0203H56.6895V81.5185H43.3106V77.0203Z" fill="#172449"/>
</g>
<defs>
<clipPath id="clip0_379_54">
<rect width="100" height="100" fill="white"/>
</clipPath>
</defs>
</svg>
