<svg width="110" height="100" viewBox="0 0 110 100" fill="none" xmlns="http://www.w3.org/2000/svg">
<path d="M45.1542 8.06093C42.715 5.51706 39.8057 3.49444 36.5956 2.11062C33.3854 0.726805 29.9384 0.00939638 26.4548 9.16874e-05C22.9712 -0.00921301 19.5206 0.689771 16.3034 2.05642C13.0862 3.42307 10.1667 5.43012 7.7145 7.96093C4.03759 11.7847 1.53463 16.6251 0.514005 21.8858C-0.506619 27.1465 -0.000317236 32.5977 1.97053 37.5677C2.32495 37.5239 2.69158 37.4989 3.06433 37.4989H17.1676L25.1847 18.2049C25.8906 16.5069 27.0706 15.0597 28.577 14.0446C30.0833 13.0295 31.8491 12.4916 33.6529 12.4983C35.4568 12.5049 37.2187 13.0559 38.7178 14.0821C40.217 15.1083 41.3867 16.5642 42.0806 18.2674L50.5315 39.0115L56.3977 29.405C57.1559 28.1653 58.187 27.1241 59.4087 26.3647C60.6305 25.6053 62.009 25.1488 63.434 25.0316C64.8591 24.9144 66.2912 25.1397 67.6159 25.6897C68.9406 26.2396 70.1211 27.0989 71.0632 28.1988L79.0314 37.4989H94.7235C95.1451 37.4989 95.5545 37.5302 95.9578 37.5864C97.8402 32.6204 98.2775 27.2034 97.2171 21.9888C96.1567 16.7743 93.6438 11.9849 89.9816 8.19844C87.5399 5.64967 84.6269 3.62314 81.4122 2.23681C78.1975 0.850478 74.7453 0.132041 71.2565 0.123316C67.7678 0.114591 64.3122 0.815754 61.0909 2.18599C57.8696 3.55623 54.9469 5.56816 52.493 8.10469L48.8511 11.8735L45.1542 8.06093ZM66.468 32.3113L72.2853 39.1177C70.2411 39.7844 68.2643 40.651 66.3825 41.7053L64.5798 39.599L61.0051 45.4491C55.8788 49.8107 52.1354 55.6322 50.2505 62.1744C49.8757 62.3646 49.4667 62.4741 49.0488 62.496C48.6309 62.518 48.2131 62.4519 47.8212 62.3019C47.4294 62.1519 47.0718 61.9211 46.7707 61.624C46.4696 61.3268 46.2314 60.9695 46.0708 60.5743L33.5868 29.9363L26.0402 48.0991C25.8054 48.6628 25.4137 49.1434 24.914 49.4813C24.4142 49.8191 23.8284 49.9992 23.2293 49.9991H3.06433C2.25401 49.9991 1.47688 49.6699 0.903902 49.0838C0.330921 48.4978 0.00902336 47.7029 0.00902336 46.8741C0.00902336 46.0453 0.330921 45.2504 0.903902 44.6643C1.47688 44.0783 2.25401 43.749 3.06433 43.749H21.2128L30.8065 20.6486C31.0419 20.0822 31.4356 19.5995 31.9382 19.261C32.4407 18.9225 33.0299 18.7434 33.6316 18.746C34.2334 18.7487 34.8209 18.9331 35.3206 19.276C35.8203 19.6189 36.2099 20.1051 36.4405 20.6737L49.4377 52.5867L61.5795 32.7176C61.8324 32.3045 62.1763 31.9576 62.5836 31.7047C62.9909 31.4517 63.4505 31.2998 63.9255 31.2609C64.4005 31.222 64.8778 31.2973 65.3193 31.4808C65.7607 31.6643 66.1541 31.9446 66.468 32.3113ZM48.1423 68.7182C48.4417 68.7432 48.735 68.7557 49.0283 68.7495C48.4872 74.7411 49.4989 80.7727 51.9614 86.2373L51.9248 86.2685C51.5485 86.6582 51.1003 86.9675 50.6063 87.1787C50.1122 87.3899 49.5821 87.4986 49.0467 87.4986C48.5112 87.4986 47.9811 87.3899 47.487 87.1787C46.993 86.9675 46.5448 86.6582 46.1686 86.2685L17.1126 56.2493H23.2293C25.0272 56.2488 26.7851 55.7076 28.2845 54.693C29.7839 53.6783 30.9584 52.2351 31.662 50.5429L33.5318 46.0428L40.4368 62.9806C41.0833 64.5677 42.1441 65.9424 43.5031 66.9544C44.8621 67.9663 46.467 68.5765 48.1423 68.7182ZM110 71.8745C110 79.3339 107.103 86.4877 101.946 91.7622C96.7893 97.0368 89.7951 100 82.5023 100C75.2094 100 68.2152 97.0368 63.0584 91.7622C57.9016 86.4877 55.0045 79.3339 55.0045 71.8745C55.0045 64.4152 57.9016 57.2614 63.0584 51.9868C68.2152 46.7123 75.2094 43.749 82.5023 43.749C89.7951 43.749 96.7893 46.7123 101.946 51.9868C107.103 57.2614 110 64.4152 110 71.8745ZM96.8866 60.2868C96.6028 59.9958 96.2657 59.7649 95.8945 59.6074C95.5233 59.4498 95.1254 59.3687 94.7235 59.3687C94.3216 59.3687 93.9237 59.4498 93.5525 59.6074C93.1813 59.7649 92.8441 59.9958 92.5603 60.2868L76.3916 76.8309L72.4442 72.787C71.8705 72.2002 71.0924 71.8706 70.281 71.8706C69.4697 71.8706 68.6916 72.2002 68.1179 72.787C67.5442 73.3738 67.2219 74.1697 67.2219 74.9996C67.2219 75.8294 67.5442 76.6253 68.1179 77.2121L74.2285 83.4622C74.5123 83.7532 74.8495 83.9841 75.2207 84.1417C75.5918 84.2992 75.9898 84.3803 76.3916 84.3803C76.7935 84.3803 77.1915 84.2992 77.5626 84.1417C77.9338 83.9841 78.271 83.7532 78.5548 83.4622L96.8866 64.7119C97.1712 64.4216 97.3969 64.0768 97.5509 63.6971C97.705 63.3174 97.7842 62.9104 97.7842 62.4994C97.7842 62.0883 97.705 61.6813 97.5509 61.3016C97.3969 60.922 97.1712 60.5771 96.8866 60.2868Z" fill="#172449"/>
</svg>
