<svg width="300" height="86" viewBox="0 0 300 86" fill="none" xmlns="http://www.w3.org/2000/svg">
<path d="M55.6013 36.1611C61.3767 36.1611 62.6761 38.9428 62.6761 42.4122C62.6761 46.0897 61.1044 48.7244 55.6252 48.7244C50.181 48.7244 48.6074 46.2428 48.6074 42.4122C48.6074 38.6428 50.3228 36.1611 55.6013 36.1611Z" fill="white"/>
<path d="M115.958 36.1611C121.734 36.1611 123.033 38.9428 123.033 42.4122C123.033 46.0897 121.459 48.7244 115.982 48.7244C110.54 48.7244 108.964 46.2428 108.964 42.4122C108.964 38.6428 110.68 36.1611 115.958 36.1611Z" fill="white"/>
<path fill-rule="evenodd" clip-rule="evenodd" d="M4.46631 78.5713V6.21826H296.328V78.5713H4.46631ZM143.567 74.4897H292.647V10.2999H143.567V74.4897ZM55.6287 54.8836C65.8821 54.8836 70.1925 49.9795 70.1925 42.3203C70.1925 34.5366 65.3373 29.9101 55.6287 29.9101C46.0692 29.9101 41.0373 34.9346 41.0373 42.3203C41.0373 50.655 46.3158 54.8836 55.6287 54.8836ZM19.9802 30.4611V54.5162H40.6747V48.1101H27.4674V30.4611H19.9802ZM93.3532 54.5162L93.16 52.1856C90.6553 54.1676 87.6067 55.1215 84.5373 54.8836C79.9232 54.8836 76.0802 53.3509 73.925 50.257C72.5034 47.9983 71.7856 45.2868 71.8802 42.5346C71.7994 39.8401 72.5421 37.1944 73.9876 35.0264C76.1686 32.0244 80.122 30.0325 86.0078 30.0325C92.779 30.0325 96.7582 32.3305 98.4698 36.1917C98.8372 37.1011 99.0531 38.0766 99.1066 39.0713H91.9434C91.7629 38.4668 91.427 37.9342 90.9772 37.5387C89.5502 36.4897 87.8463 36.0046 86.1404 36.1611C85.1397 36.0266 84.1245 36.1291 83.1623 36.4619C82.2001 36.7948 81.3124 37.3503 80.5582 38.0917C79.7016 39.3917 79.2994 40.9921 79.4263 42.5958C79.3269 44.1258 79.6966 45.6483 80.4753 46.9162C81.2364 47.7025 82.1412 48.2981 83.128 48.663C84.1151 49.0277 85.161 49.1532 86.1956 49.0305C88.2501 49.2158 90.2899 48.5132 91.8882 47.0693C92.2315 46.5934 92.4682 46.0338 92.5784 45.4366H84.8704V40.2672H99.2944V54.5162H93.3532ZM115.986 54.8836C126.237 54.8836 130.55 49.9795 130.55 42.3203C130.55 34.5366 125.687 29.9101 115.986 29.9101C106.426 29.9101 101.394 34.9346 101.394 42.3203C101.394 50.655 106.673 54.8836 115.986 54.8836Z" fill="white"/>
<path d="M156.179 54.4245V30.3694H161.516V54.4245H156.179Z" fill="white"/>
<path d="M188.924 44.3735C187.572 46.3347 185.243 47.2306 181.962 47.2531C181.27 47.2531 172.095 47.2225 172.095 47.2225V54.4245H166.872V30.3694H181.964C183.173 30.2276 184.397 30.3698 185.553 30.7868C186.71 31.2039 187.774 31.8864 188.678 32.7898C189.87 34.5127 190.45 36.6608 190.308 38.8266C190.43 40.7964 189.942 42.7533 188.924 44.3735ZM184.642 36.5306C184.089 35.6123 182.899 35.1021 180.883 35.1021H172.067V42.4245H180.826C182.981 42.4245 184.117 41.9347 184.642 40.9837C184.953 40.3137 185.087 39.5592 185.028 38.8082C185.074 38.0249 184.942 37.2415 184.642 36.5306Z" fill="white"/>
<path d="M205.7 54.7917C195.861 54.7917 192.85 50.7101 192.85 46.6713H198.432C198.432 48.6632 200.891 50.1652 205.949 50.1652C210.977 50.1652 212.304 49.1836 212.304 47.5897C212.304 45.8122 211.31 45.2611 206.639 44.6795C205.719 44.5877 203.214 44.2509 202.273 44.0979C195.648 43.2693 193.097 41.0938 193.097 37.202C193.097 33.0958 196.829 30.002 204.926 30.002C213.714 30.002 217.086 33.8326 217.086 37.8162H211.564C211.564 35.7938 209.492 34.6285 204.6 34.6285C199.57 34.6285 198.493 35.3938 198.493 36.8958C198.493 38.4591 199.597 38.9489 204.935 39.653C206.151 39.8387 208.859 40.1754 209.604 40.2652C215.243 40.9081 217.785 43.1754 217.785 47.1897C217.776 51.9713 213.907 54.7917 205.7 54.7917Z" fill="white"/>
<path d="M233.503 54.7612C226.292 54.7612 221.593 51.6041 221.593 44.9653V30.3694H226.87V45.0469C226.87 48.0816 229.11 50.102 233.724 50.102C237.896 50.102 240.385 48.2041 240.385 45.0469V30.3694H245.608V45.5102C245.608 51.5449 241.241 54.7612 233.503 54.7612Z" fill="white"/>
<path d="M274.209 54.4245V38.3673L267.438 54.4245H262.299L255.721 38.3673V54.4245H250.752V30.3694H257.484L264.946 48.6939L272.573 30.3694H279.199V54.4245H274.209Z" fill="white"/>
</svg>
